<svg width="121" height="40" viewBox="0 0 121 40" fill="none" xmlns="http://www.w3.org/2000/svg">
<g clip-path="url(#clip0_820_489)">
<rect x="0.5" width="120" height="40" rx="3" fill="#006356"/>
<path opacity="0.4" d="M9.15006 26.9098C9.12006 26.9098 9.08006 26.9298 9.05006 26.9298C7.11006 25.9698 5.53006 24.3798 4.56006 22.4398C4.56006 22.4098 4.58006 22.3698 4.58006 22.3398C5.80006 22.6998 7.06006 22.9698 8.31006 23.1798C8.53006 24.4398 8.79006 25.6898 9.15006 26.9098Z" fill="white"/>
<path opacity="0.4" d="M22.44 22.4498C21.45 24.4398 19.8 26.0498 17.79 27.0198C18.17 25.7498 18.49 24.4698 18.7 23.1798C19.96 22.9698 21.2 22.6998 22.42 22.3398C22.41 22.3798 22.44 22.4198 22.44 22.4498Z" fill="white"/>
<path opacity="0.4" d="M22.52 13.7105C21.26 13.3305 19.99 13.0205 18.7 12.8005C18.49 11.5105 18.18 10.2305 17.79 8.98047C19.86 9.97047 21.53 11.6405 22.52 13.7105Z" fill="white"/>
<path opacity="0.4" d="M9.14998 9.09055C8.78998 10.3105 8.52998 11.5505 8.31998 12.8105C7.02998 13.0105 5.74998 13.3305 4.47998 13.7105C5.44998 11.7005 7.05998 10.0505 9.04998 9.06055C9.07998 9.06055 9.11998 9.09055 9.14998 9.09055Z" fill="white"/>
<path d="M16.99 12.59C14.67 12.33 12.33 12.33 10.01 12.59C10.26 11.22 10.58 9.85 11.03 8.53C11.05 8.45 11.04 8.39 11.05 8.31C11.84 8.12 12.65 8 13.5 8C14.34 8 15.16 8.12 15.94 8.31C15.95 8.39 15.95 8.45 15.97 8.53C16.42 9.86 16.74 11.22 16.99 12.59Z" fill="white"/>
<path d="M8.09 21.4898C6.71 21.2398 5.35 20.9198 4.03 20.4698C3.95 20.4498 3.89 20.4598 3.81 20.4498C3.62 19.6598 3.5 18.8498 3.5 17.9998C3.5 17.1598 3.62 16.3398 3.81 15.5598C3.89 15.5498 3.95 15.5498 4.03 15.5298C5.36 15.0898 6.71 14.7598 8.09 14.5098C7.84 16.8298 7.84 19.1698 8.09 21.4898Z" fill="white"/>
<path d="M23.5 17.9998C23.5 18.8498 23.38 19.6598 23.19 20.4498C23.11 20.4598 23.05 20.4498 22.97 20.4698C21.64 20.9098 20.28 21.2398 18.91 21.4898C19.17 19.1698 19.17 16.8298 18.91 14.5098C20.28 14.7598 21.65 15.0798 22.97 15.5298C23.05 15.5498 23.11 15.5598 23.19 15.5598C23.38 16.3498 23.5 17.1598 23.5 17.9998Z" fill="white"/>
<path d="M16.99 23.4102C16.74 24.7902 16.42 26.1502 15.97 27.4702C15.95 27.5502 15.95 27.6102 15.94 27.6902C15.16 27.8802 14.34 28.0002 13.5 28.0002C12.65 28.0002 11.84 27.8802 11.05 27.6902C11.04 27.6102 11.05 27.5502 11.03 27.4702C10.59 26.1402 10.26 24.7902 10.01 23.4102C11.17 23.5402 12.33 23.6302 13.5 23.6302C14.67 23.6302 15.84 23.5402 16.99 23.4102Z" fill="white"/>
<path d="M17.2633 21.7633C14.7622 22.0789 12.2378 22.0789 9.73667 21.7633C9.42111 19.2622 9.42111 16.7378 9.73667 14.2367C12.2378 13.9211 14.7622 13.9211 17.2633 14.2367C17.5789 16.7378 17.5789 19.2622 17.2633 21.7633Z" fill="white"/>
<path d="M35.0774 10.8189C35.049 10.5324 34.9271 10.3099 34.7116 10.1513C34.4962 9.99266 34.2038 9.91335 33.8345 9.91335C33.5836 9.91335 33.3717 9.94886 33.1989 10.0199C33.026 10.0885 32.8935 10.1844 32.8011 10.3075C32.7112 10.4306 32.6662 10.5703 32.6662 10.7266C32.6615 10.8568 32.6887 10.9704 32.7479 11.0675C32.8094 11.1645 32.8935 11.2486 33 11.3196C33.1065 11.3883 33.2296 11.4486 33.3693 11.5007C33.509 11.5504 33.6581 11.593 33.8168 11.6286L34.4702 11.7848C34.7874 11.8558 35.0786 11.9505 35.3438 12.0689C35.6089 12.1873 35.8385 12.3329 36.0327 12.5057C36.2268 12.6785 36.3771 12.8821 36.4837 13.1165C36.5926 13.3509 36.6482 13.6196 36.6506 13.9226C36.6482 14.3677 36.5346 14.7536 36.3097 15.0803C36.0871 15.4046 35.7652 15.6567 35.3438 15.8366C34.9247 16.0142 34.4193 16.103 33.8274 16.103C33.2403 16.103 32.7289 16.013 32.2933 15.8331C31.8601 15.6532 31.5215 15.3868 31.2777 15.0341C31.0362 14.679 30.9096 14.2398 30.8977 13.7166H32.3857C32.4022 13.9605 32.4721 14.1641 32.5952 14.3274C32.7206 14.4884 32.8875 14.6103 33.0959 14.6932C33.3066 14.7737 33.5445 14.8139 33.8097 14.8139C34.0701 14.8139 34.2962 14.776 34.4879 14.7003C34.6821 14.6245 34.8324 14.5192 34.9389 14.3842C35.0455 14.2493 35.0987 14.0942 35.0987 13.919C35.0987 13.7557 35.0502 13.6184 34.9531 13.5071C34.8584 13.3958 34.7188 13.3011 34.5341 13.223C34.3518 13.1449 34.1281 13.0739 33.8629 13.0099L33.071 12.8111C32.4579 12.6619 31.9737 12.4287 31.6186 12.1115C31.2635 11.7943 31.0871 11.367 31.0895 10.8295C31.0871 10.3892 31.2043 10.0045 31.4411 9.67543C31.6802 9.34635 32.008 9.08949 32.4247 8.90483C32.8414 8.72017 33.3149 8.62784 33.8452 8.62784C34.3849 8.62784 34.8561 8.72017 35.2585 8.90483C35.6634 9.08949 35.9782 9.34635 36.2031 9.67543C36.428 10.0045 36.544 10.3857 36.5511 10.8189H35.0774ZM37.6564 16V10.5455H39.1692V16H37.6564ZM38.4164 9.84233C38.1915 9.84233 37.9985 9.76776 37.8375 9.61861C37.6789 9.46709 37.5996 9.28598 37.5996 9.07528C37.5996 8.86695 37.6789 8.68821 37.8375 8.53906C37.9985 8.38755 38.1915 8.31179 38.4164 8.31179C38.6413 8.31179 38.833 8.38755 38.9917 8.53906C39.1526 8.68821 39.2331 8.86695 39.2331 9.07528C39.2331 9.28598 39.1526 9.46709 38.9917 9.61861C38.833 9.76776 38.6413 9.84233 38.4164 9.84233ZM41.8938 12.8466V16H40.381V10.5455H41.8228V11.5078H41.8867C42.0075 11.1906 42.2099 10.9396 42.494 10.755C42.7781 10.5679 43.1225 10.4744 43.5273 10.4744C43.9061 10.4744 44.2364 10.5573 44.5181 10.723C44.7998 10.8887 45.0188 11.1255 45.1751 11.4332C45.3313 11.7386 45.4094 12.1032 45.4094 12.527V16H43.8967V12.7969C43.899 12.4631 43.8138 12.2027 43.641 12.0156C43.4682 11.8262 43.2302 11.7315 42.9272 11.7315C42.7236 11.7315 42.5437 11.7753 42.3874 11.8629C42.2335 11.9505 42.1128 12.0784 42.0252 12.2464C41.94 12.4122 41.8962 12.6122 41.8938 12.8466ZM49.0591 18.1591C48.5691 18.1591 48.1489 18.0916 47.7985 17.9567C47.4505 17.8241 47.1735 17.643 46.9675 17.4134C46.7615 17.1837 46.6278 16.9257 46.5662 16.6392L47.9654 16.451C48.008 16.5599 48.0755 16.6617 48.1678 16.7564C48.2601 16.8511 48.382 16.9268 48.5336 16.9837C48.6874 17.0429 48.8745 17.0724 49.0946 17.0724C49.4237 17.0724 49.6948 16.992 49.9078 16.831C50.1233 16.6723 50.231 16.406 50.231 16.032V15.0341H50.1671C50.1008 15.1856 50.0014 15.3288 49.8688 15.4638C49.7362 15.5987 49.5658 15.7088 49.3574 15.794C49.1491 15.8793 48.9005 15.9219 48.6117 15.9219C48.2021 15.9219 47.8292 15.8272 47.4931 15.6378C47.1593 15.446 46.8929 15.1536 46.6941 14.7607C46.4976 14.3653 46.3993 13.8658 46.3993 13.2621C46.3993 12.6442 46.4999 12.1281 46.7012 11.7138C46.9024 11.2995 47.1699 10.9893 47.5037 10.7834C47.8399 10.5774 48.208 10.4744 48.6081 10.4744C48.9135 10.4744 49.1692 10.5265 49.3752 10.6307C49.5811 10.7325 49.7469 10.8603 49.8723 11.0142C50.0002 11.1657 50.0984 11.3149 50.1671 11.4616H50.2239V10.5455H51.726V16.0533C51.726 16.5173 51.6124 16.9055 51.3851 17.218C51.1578 17.5305 50.843 17.7649 50.4405 17.9212C50.0404 18.0798 49.58 18.1591 49.0591 18.1591ZM49.0911 14.7855C49.3349 14.7855 49.5409 14.7251 49.709 14.6044C49.8794 14.4813 50.0096 14.3061 50.0996 14.0788C50.1919 13.8492 50.2381 13.5746 50.2381 13.255C50.2381 12.9354 50.1931 12.6584 50.1032 12.424C50.0132 12.1873 49.883 12.0038 49.7125 11.8736C49.5421 11.7434 49.3349 11.6783 49.0911 11.6783C48.8425 11.6783 48.633 11.7457 48.4625 11.8807C48.2921 12.0133 48.1631 12.1979 48.0755 12.4347C47.9879 12.6714 47.9441 12.9448 47.9441 13.255C47.9441 13.5698 47.9879 13.8421 48.0755 14.0717C48.1654 14.299 48.2944 14.4754 48.4625 14.6009C48.633 14.724 48.8425 14.7855 49.0911 14.7855ZM55.2443 16V10.5455H56.7571V16H55.2443ZM56.0043 9.84233C55.7794 9.84233 55.5864 9.76776 55.4254 9.61861C55.2668 9.46709 55.1875 9.28598 55.1875 9.07528C55.1875 8.86695 55.2668 8.68821 55.4254 8.53906C55.5864 8.38755 55.7794 8.31179 56.0043 8.31179C56.2292 8.31179 56.4209 8.38755 56.5795 8.53906C56.7405 8.68821 56.821 8.86695 56.821 9.07528C56.821 9.28598 56.7405 9.46709 56.5795 9.61861C56.4209 9.76776 56.2292 9.84233 56.0043 9.84233ZM59.4817 12.8466V16H57.9689V10.5455H59.4107V11.5078H59.4746C59.5953 11.1906 59.7978 10.9396 60.0819 10.755C60.3659 10.5679 60.7104 10.4744 61.1152 10.4744C61.494 10.4744 61.8243 10.5573 62.106 10.723C62.3877 10.8887 62.6067 11.1255 62.763 11.4332C62.9192 11.7386 62.9973 12.1032 62.9973 12.527V16H61.4846V12.7969C61.4869 12.4631 61.4017 12.2027 61.2289 12.0156C61.056 11.8262 60.8181 11.7315 60.5151 11.7315C60.3115 11.7315 60.1316 11.7753 59.9753 11.8629C59.8214 11.9505 59.7007 12.0784 59.6131 12.2464C59.5279 12.4122 59.4841 12.6122 59.4817 12.8466ZM69.4054 10.5455V11.6818H66.1206V10.5455H69.4054ZM66.8663 9.23864H68.3791V14.3239C68.3791 14.4635 68.4004 14.5724 68.443 14.6506C68.4856 14.7263 68.5448 14.7796 68.6206 14.8104C68.6987 14.8411 68.7886 14.8565 68.8904 14.8565C68.9615 14.8565 69.0325 14.8506 69.1035 14.8388C69.1745 14.8246 69.229 14.8139 69.2669 14.8068L69.5048 15.9325C69.429 15.9562 69.3225 15.9834 69.1852 16.0142C69.0479 16.0473 68.881 16.0675 68.6845 16.0746C68.3199 16.0888 68.0003 16.0402 67.7257 15.929C67.4534 15.8177 67.2415 15.6449 67.09 15.4105C66.9385 15.1761 66.8639 14.8802 66.8663 14.5227V9.23864ZM72.7967 16.1065C72.2451 16.1065 71.7681 15.9893 71.3656 15.755C70.9655 15.5182 70.6565 15.1892 70.4387 14.7678C70.2209 14.344 70.112 13.8527 70.112 13.294C70.112 12.7306 70.2209 12.2382 70.4387 11.8168C70.6565 11.393 70.9655 11.0639 71.3656 10.8295C71.7681 10.5928 72.2451 10.4744 72.7967 10.4744C73.3483 10.4744 73.8242 10.5928 74.2243 10.8295C74.6267 11.0639 74.9368 11.393 75.1547 11.8168C75.3725 12.2382 75.4814 12.7306 75.4814 13.294C75.4814 13.8527 75.3725 14.344 75.1547 14.7678C74.9368 15.1892 74.6267 15.5182 74.2243 15.755C73.8242 15.9893 73.3483 16.1065 72.7967 16.1065ZM72.8038 14.9347C73.0547 14.9347 73.2643 14.8636 73.4324 14.7216C73.6004 14.5772 73.7271 14.3807 73.8123 14.1321C73.8999 13.8835 73.9437 13.6006 73.9437 13.2834C73.9437 12.9661 73.8999 12.6832 73.8123 12.4347C73.7271 12.1861 73.6004 11.9896 73.4324 11.8452C73.2643 11.7008 73.0547 11.6286 72.8038 11.6286C72.5505 11.6286 72.3374 11.7008 72.1646 11.8452C71.9941 11.9896 71.8651 12.1861 71.7775 12.4347C71.6923 12.6832 71.6497 12.9661 71.6497 13.2834C71.6497 13.6006 71.6923 13.8835 71.7775 14.1321C71.8651 14.3807 71.9941 14.5772 72.1646 14.7216C72.3374 14.8636 72.5505 14.9347 72.8038 14.9347Z" fill="white"/>
<path fill-rule="evenodd" clip-rule="evenodd" d="M78.86 6.31836H83.5V7.24092C83.5 7.74834 82.9785 7.93498 82.5114 7.93889L78.5652 7.97218L78.0291 9.13616L78.0109 7.241C78.0165 6.73358 78.393 6.31843 78.86 6.31843V6.31836Z" fill="white"/>
<path fill-rule="evenodd" clip-rule="evenodd" d="M78.1061 9.0918H81.6949C82.0585 9.0918 82.356 9.44195 82.356 9.86994C82.356 10.2966 82.1157 10.6481 81.7387 10.6481H78.0754L77.5222 11.6177L77.5079 9.82824C77.5079 9.42324 77.7536 9.0918 78.1061 9.0918Z" fill="white"/>
<path fill-rule="evenodd" clip-rule="evenodd" d="M78.9166 10.9121L78.8127 14.5316C78.8003 14.9633 78.5171 15.3175 78.1564 15.3175H77.5231C77.5104 15.3175 77.4998 15.3051 77.5 15.2899L77.5513 11.5641L78.1803 11.9172L78.9166 10.9121Z" fill="white"/>
<path d="M82.6172 9.81445H83.3789V9.42383C83.3789 8.98763 83.4245 8.66211 83.5156 8.44727C83.61 8.23242 83.7809 8.05827 84.0283 7.9248C84.279 7.78809 84.5947 7.71973 84.9756 7.71973C85.3662 7.71973 85.7487 7.77832 86.123 7.89551L85.9375 8.85254C85.7194 8.80046 85.5094 8.77441 85.3076 8.77441C85.109 8.77441 84.9658 8.82161 84.8779 8.91602C84.7933 9.00716 84.751 9.18457 84.751 9.44824V9.81445H85.7764V10.8936H84.751V15H83.3789V10.8936H82.6172V9.81445ZM87.5732 11.3965L86.3281 11.1719C86.4681 10.6706 86.709 10.2995 87.0508 10.0586C87.3926 9.81771 87.9004 9.69727 88.5742 9.69727C89.1862 9.69727 89.6419 9.77051 89.9414 9.91699C90.2409 10.0602 90.4508 10.2441 90.5713 10.4688C90.695 10.6901 90.7568 11.0986 90.7568 11.6943L90.7422 13.2959C90.7422 13.7516 90.7633 14.0885 90.8057 14.3066C90.8512 14.5215 90.9342 14.7526 91.0547 15H89.6973C89.6615 14.9089 89.6175 14.7738 89.5654 14.5947C89.5426 14.5133 89.5264 14.4596 89.5166 14.4336C89.2822 14.6615 89.0316 14.8324 88.7646 14.9463C88.4977 15.0602 88.2129 15.1172 87.9102 15.1172C87.3763 15.1172 86.9548 14.9723 86.6455 14.6826C86.3395 14.3929 86.1865 14.0267 86.1865 13.584C86.1865 13.291 86.2565 13.0306 86.3965 12.8027C86.5365 12.5716 86.7318 12.3958 86.9824 12.2754C87.2363 12.1517 87.6009 12.0443 88.0762 11.9531C88.7174 11.8327 89.1618 11.7204 89.4092 11.6162V11.4795C89.4092 11.2158 89.3441 11.0286 89.2139 10.918C89.0837 10.804 88.8379 10.7471 88.4766 10.7471C88.2324 10.7471 88.042 10.7959 87.9053 10.8936C87.7686 10.988 87.6579 11.1556 87.5732 11.3965ZM89.4092 12.5098C89.2334 12.5684 88.9551 12.6383 88.5742 12.7197C88.1934 12.8011 87.9443 12.8809 87.8271 12.959C87.6481 13.0859 87.5586 13.2471 87.5586 13.4424C87.5586 13.6344 87.6302 13.8005 87.7734 13.9404C87.9167 14.0804 88.099 14.1504 88.3203 14.1504C88.5677 14.1504 88.8037 14.069 89.0283 13.9062C89.1943 13.7826 89.3034 13.6312 89.3555 13.4521C89.3913 13.335 89.4092 13.112 89.4092 12.7832V12.5098ZM91.6309 13.5205L93.0078 13.3105C93.0664 13.5775 93.1852 13.7809 93.3643 13.9209C93.5433 14.0576 93.7939 14.126 94.1162 14.126C94.471 14.126 94.738 14.0609 94.917 13.9307C95.0374 13.8395 95.0977 13.7174 95.0977 13.5645C95.0977 13.4603 95.0651 13.374 95 13.3057C94.9316 13.2406 94.7786 13.1803 94.541 13.125C93.4342 12.8809 92.7327 12.6579 92.4365 12.4561C92.0264 12.1761 91.8213 11.7871 91.8213 11.2891C91.8213 10.8398 91.9987 10.4622 92.3535 10.1562C92.7083 9.85026 93.2585 9.69727 94.0039 9.69727C94.7135 9.69727 95.2409 9.81283 95.5859 10.0439C95.931 10.2751 96.1686 10.6169 96.2988 11.0693L95.0049 11.3086C94.9495 11.1068 94.8438 10.9521 94.6875 10.8447C94.5345 10.7373 94.3148 10.6836 94.0283 10.6836C93.667 10.6836 93.4082 10.734 93.252 10.835C93.1478 10.9066 93.0957 10.9993 93.0957 11.1133C93.0957 11.2109 93.1413 11.2939 93.2324 11.3623C93.3561 11.4535 93.7826 11.582 94.5117 11.748C95.2441 11.9141 95.7552 12.1175 96.0449 12.3584C96.3314 12.6025 96.4746 12.9427 96.4746 13.3789C96.4746 13.8542 96.276 14.2627 95.8789 14.6045C95.4818 14.9463 94.8942 15.1172 94.1162 15.1172C93.4098 15.1172 92.8499 14.974 92.4365 14.6875C92.0264 14.401 91.7578 14.012 91.6309 13.5205ZM100.059 9.81445V10.9082H99.1211V12.998C99.1211 13.4212 99.1292 13.6686 99.1455 13.7402C99.165 13.8086 99.2057 13.8656 99.2676 13.9111C99.3327 13.9567 99.4108 13.9795 99.502 13.9795C99.6289 13.9795 99.8128 13.9355 100.054 13.8477L100.171 14.9121C99.8519 15.0488 99.4906 15.1172 99.0869 15.1172C98.8395 15.1172 98.6165 15.0765 98.418 14.9951C98.2194 14.9105 98.0729 14.8031 97.9785 14.6729C97.8874 14.5394 97.8239 14.3604 97.7881 14.1357C97.7588 13.9762 97.7441 13.654 97.7441 13.1689V10.9082H97.1143V9.81445H97.7441V8.78418L99.1211 7.9834V9.81445H100.059ZM100.972 9.81445H102.251V10.5762C102.417 10.3158 102.642 10.1042 102.925 9.94141C103.208 9.77865 103.522 9.69727 103.867 9.69727C104.469 9.69727 104.98 9.93327 105.4 10.4053C105.82 10.8773 106.03 11.5348 106.03 12.3779C106.03 13.2438 105.819 13.9176 105.396 14.3994C104.972 14.8779 104.46 15.1172 103.857 15.1172C103.571 15.1172 103.311 15.0602 103.076 14.9463C102.845 14.8324 102.601 14.637 102.344 14.3604V16.9727H100.972V9.81445ZM102.329 12.3193C102.329 12.902 102.445 13.3333 102.676 13.6133C102.907 13.89 103.188 14.0283 103.521 14.0283C103.84 14.0283 104.105 13.9014 104.316 13.6475C104.528 13.3903 104.634 12.9704 104.634 12.3877C104.634 11.8441 104.525 11.4404 104.307 11.1768C104.089 10.9131 103.818 10.7812 103.496 10.7812C103.161 10.7812 102.882 10.9115 102.661 11.1719C102.44 11.429 102.329 11.8115 102.329 12.3193ZM108.149 11.3965L106.904 11.1719C107.044 10.6706 107.285 10.2995 107.627 10.0586C107.969 9.81771 108.477 9.69727 109.15 9.69727C109.762 9.69727 110.218 9.77051 110.518 9.91699C110.817 10.0602 111.027 10.2441 111.147 10.4688C111.271 10.6901 111.333 11.0986 111.333 11.6943L111.318 13.2959C111.318 13.7516 111.34 14.0885 111.382 14.3066C111.427 14.5215 111.51 14.7526 111.631 15H110.273C110.238 14.9089 110.194 14.7738 110.142 14.5947C110.119 14.5133 110.103 14.4596 110.093 14.4336C109.858 14.6615 109.608 14.8324 109.341 14.9463C109.074 15.0602 108.789 15.1172 108.486 15.1172C107.952 15.1172 107.531 14.9723 107.222 14.6826C106.916 14.3929 106.763 14.0267 106.763 13.584C106.763 13.291 106.833 13.0306 106.973 12.8027C107.113 12.5716 107.308 12.3958 107.559 12.2754C107.812 12.1517 108.177 12.0443 108.652 11.9531C109.294 11.8327 109.738 11.7204 109.985 11.6162V11.4795C109.985 11.2158 109.92 11.0286 109.79 10.918C109.66 10.804 109.414 10.7471 109.053 10.7471C108.809 10.7471 108.618 10.7959 108.481 10.8936C108.345 10.988 108.234 11.1556 108.149 11.3965ZM109.985 12.5098C109.81 12.5684 109.531 12.6383 109.15 12.7197C108.77 12.8011 108.521 12.8809 108.403 12.959C108.224 13.0859 108.135 13.2471 108.135 13.4424C108.135 13.6344 108.206 13.8005 108.35 13.9404C108.493 14.0804 108.675 14.1504 108.896 14.1504C109.144 14.1504 109.38 14.069 109.604 13.9062C109.771 13.7826 109.88 13.6312 109.932 13.4521C109.967 13.335 109.985 13.112 109.985 12.7832V12.5098ZM112.041 9.81445H113.501L114.741 13.4961L115.952 9.81445H117.373L115.542 14.8047L115.215 15.708C115.094 16.0107 114.979 16.2419 114.868 16.4014C114.761 16.5609 114.635 16.6895 114.492 16.7871C114.352 16.888 114.178 16.9661 113.97 17.0215C113.765 17.0768 113.532 17.1045 113.271 17.1045C113.008 17.1045 112.749 17.0768 112.495 17.0215L112.373 15.9473C112.588 15.9896 112.782 16.0107 112.954 16.0107C113.273 16.0107 113.509 15.9163 113.662 15.7275C113.815 15.542 113.932 15.3044 114.014 15.0146L112.041 9.81445Z" fill="white"/>
<path d="M40.2685 26.2727C40.2685 27.3253 40.0638 28.2132 39.6545 28.9364C39.2451 29.6566 38.6927 30.2029 37.9972 30.5753C37.3016 30.9446 36.526 31.1293 35.6705 31.1293C34.8087 31.1293 34.0301 30.9431 33.3345 30.5707C32.642 30.1952 32.0911 29.6474 31.6818 28.9272C31.2756 28.204 31.0724 27.3191 31.0724 26.2727C31.0724 25.2202 31.2756 24.3338 31.6818 23.6136C32.0911 22.8904 32.642 22.3441 33.3345 21.9748C34.0301 21.6024 34.8087 21.4162 35.6705 21.4162C36.526 21.4162 37.3016 21.6024 37.9972 21.9748C38.6927 22.3441 39.2451 22.8904 39.6545 23.6136C40.0638 24.3338 40.2685 25.2202 40.2685 26.2727ZM37.6278 26.2727C37.6278 25.7064 37.5524 25.2294 37.4016 24.8416C37.2539 24.4508 37.0339 24.1553 36.7415 23.9553C36.4522 23.7521 36.0952 23.6506 35.6705 23.6506C35.2457 23.6506 34.8872 23.7521 34.5948 23.9553C34.3055 24.1553 34.0855 24.4508 33.9347 24.8416C33.7869 25.2294 33.7131 25.7064 33.7131 26.2727C33.7131 26.839 33.7869 27.3176 33.9347 27.7085C34.0855 28.0962 34.3055 28.3917 34.5948 28.5948C34.8872 28.7949 35.2457 28.8949 35.6705 28.8949C36.0952 28.8949 36.4522 28.7949 36.7415 28.5948C37.0339 28.3917 37.2539 28.0962 37.4016 27.7085C37.5524 27.3176 37.6278 26.839 37.6278 26.2727ZM44.0413 27.0114V31H41.493V23.9091H43.912V25.2571H43.9859C44.1398 24.8078 44.4106 24.4554 44.7984 24.1999C45.1892 23.9445 45.6447 23.8168 46.1649 23.8168C46.6665 23.8168 47.102 23.9322 47.4713 24.163C47.8437 24.3907 48.1315 24.7047 48.3346 25.1048C48.5408 25.5049 48.6424 25.9619 48.6393 26.4759V31H46.091V27.0114C46.0941 26.6605 46.0048 26.3851 45.8232 26.185C45.6447 25.985 45.3954 25.8849 45.0754 25.8849C44.8661 25.8849 44.683 25.9311 44.526 26.0234C44.3721 26.1127 44.2536 26.242 44.1705 26.4112C44.0874 26.5774 44.0444 26.7775 44.0413 27.0114ZM52.1917 23.6136V21.5455H60.409V23.6136H57.5653V31H55.0354V23.6136H52.1917ZM63.9602 27.0114V31H61.4119V21.5455H63.8679V25.2571H63.9418C64.1018 24.8047 64.368 24.4523 64.7404 24.1999C65.1128 23.9445 65.5606 23.8168 66.0838 23.8168C66.5855 23.8168 67.021 23.9306 67.3903 24.1584C67.7627 24.3861 68.0504 24.7 68.2536 25.1001C68.4598 25.5002 68.5613 25.9588 68.5582 26.4759V31H66.0099V27.0114C66.013 26.6605 65.9253 26.3851 65.7468 26.185C65.5714 25.985 65.3205 25.8849 64.9943 25.8849C64.7881 25.8849 64.6065 25.9311 64.4496 26.0234C64.2957 26.1127 64.1757 26.242 64.0895 26.4112C64.0064 26.5774 63.9633 26.7775 63.9602 27.0114ZM73.214 31.1293C72.4569 31.1293 71.8044 30.9846 71.2566 30.6953C70.7118 30.4029 70.2917 29.9844 69.9963 29.4396C69.7039 28.8918 69.5577 28.2363 69.5577 27.473C69.5577 26.7405 69.7054 26.1004 70.0009 25.5526C70.2963 25.0047 70.7134 24.5785 71.252 24.2738C71.7905 23.9691 72.4261 23.8168 73.1586 23.8168C73.6941 23.8168 74.1788 23.8999 74.6127 24.0661C75.0467 24.2322 75.4176 24.4738 75.7253 24.7908C76.0331 25.1048 76.2701 25.4864 76.4363 25.9357C76.6025 26.3851 76.6855 26.8913 76.6855 27.4545V28.0455H70.3517V26.642H74.3404C74.3373 26.4389 74.285 26.2604 74.1834 26.1065C74.0849 25.9496 73.9511 25.828 73.7818 25.7418C73.6156 25.6526 73.4263 25.608 73.214 25.608C73.0078 25.608 72.8185 25.6526 72.6461 25.7418C72.4738 25.828 72.3353 25.948 72.2306 26.1019C72.1291 26.2558 72.0752 26.4358 72.0691 26.642V28.1562C72.0691 28.384 72.1168 28.5871 72.2122 28.7656C72.3076 28.9441 72.4445 29.0842 72.623 29.1857C72.8016 29.2873 73.017 29.3381 73.2694 29.3381C73.4448 29.3381 73.6048 29.3134 73.7495 29.2642C73.8972 29.215 74.0234 29.1442 74.128 29.0518C74.2327 28.9564 74.3096 28.8426 74.3588 28.7102H76.6855C76.6055 29.2027 76.4163 29.6304 76.1177 29.9936C75.8192 30.3537 75.4237 30.6338 74.9313 30.8338C74.4419 31.0308 73.8695 31.1293 73.214 31.1293ZM82.6789 31L79.8905 21.5455H82.7528L84.0454 27.3622H84.1192L85.6519 21.5455H87.9047L89.4374 27.3807H89.5113L90.8039 21.5455H93.6661L90.8778 31H88.4218L86.8153 25.7188H86.7414L85.1349 31H82.6789ZM97.1065 31.1293C96.3494 31.1293 95.697 30.9846 95.1491 30.6953C94.6044 30.4029 94.1843 29.9844 93.8888 29.4396C93.5965 28.8918 93.4503 28.2363 93.4503 27.473C93.4503 26.7405 93.598 26.1004 93.8935 25.5526C94.1889 25.0047 94.6059 24.5785 95.1445 24.2738C95.6831 23.9691 96.3187 23.8168 97.0511 23.8168C97.5866 23.8168 98.0714 23.8999 98.5053 24.0661C98.9393 24.2322 99.3101 24.4738 99.6179 24.7908C99.9257 25.1048 100.163 25.4864 100.329 25.9357C100.495 26.3851 100.578 26.8913 100.578 27.4545V28.0455H94.2443V26.642H98.233C98.2299 26.4389 98.1776 26.2604 98.076 26.1065C97.9775 25.9496 97.8436 25.828 97.6744 25.7418C97.5082 25.6526 97.3189 25.608 97.1065 25.608C96.9003 25.608 96.7111 25.6526 96.5387 25.7418C96.3664 25.828 96.2279 25.948 96.1232 26.1019C96.0217 26.2558 95.9678 26.4358 95.9616 26.642V28.1562C95.9616 28.384 96.0094 28.5871 96.1048 28.7656C96.2002 28.9441 96.3371 29.0842 96.5156 29.1857C96.6941 29.2873 96.9096 29.3381 97.1619 29.3381C97.3374 29.3381 97.4974 29.3134 97.642 29.2642C97.7898 29.215 97.916 29.1442 98.0206 29.0518C98.1252 28.9564 98.2022 28.8426 98.2514 28.7102H100.578C100.498 29.2027 100.309 29.6304 100.01 29.9936C99.7118 30.3537 99.3163 30.6338 98.8239 30.8338C98.3345 31.0308 97.7621 31.1293 97.1065 31.1293ZM101.581 31V21.5455H104.129V25.1463H104.166C104.259 24.9062 104.394 24.6862 104.573 24.4862C104.751 24.283 104.973 24.1214 105.237 24.0014C105.502 23.8783 105.81 23.8168 106.161 23.8168C106.628 23.8168 107.073 23.9414 107.495 24.1907C107.919 24.44 108.264 24.8324 108.529 25.3679C108.797 25.9034 108.93 26.599 108.93 27.4545C108.93 28.2732 108.803 28.9518 108.547 29.4904C108.295 30.029 107.956 30.4306 107.532 30.6953C107.11 30.96 106.647 31.0923 106.142 31.0923C105.81 31.0923 105.513 31.0385 105.251 30.9308C104.993 30.82 104.771 30.6707 104.586 30.483C104.405 30.2921 104.265 30.0767 104.166 29.8366H104.111V31H101.581ZM104.074 27.4545C104.074 27.7992 104.119 28.0978 104.208 28.3501C104.3 28.5994 104.429 28.7933 104.596 28.9318C104.765 29.0672 104.966 29.1349 105.2 29.1349C105.434 29.1349 105.633 29.0688 105.796 28.9364C105.962 28.801 106.088 28.6087 106.174 28.3594C106.264 28.107 106.308 27.8054 106.308 27.4545C106.308 27.1037 106.264 26.8036 106.174 26.5543C106.088 26.302 105.962 26.1096 105.796 25.9773C105.633 25.8419 105.434 25.7741 105.2 25.7741C104.966 25.7741 104.765 25.8419 104.596 25.9773C104.429 26.1096 104.3 26.302 104.208 26.5543C104.119 26.8036 104.074 27.1037 104.074 27.4545Z" fill="white"/>
</g>
<defs>
<clipPath id="clip0_820_489">
<rect x="0.5" width="120" height="40" rx="3" fill="white"/>
</clipPath>
</defs>
</svg>
